<?xml version="1.0" encoding="UTF-8"?>
<!DOCTYPE svg PUBLIC "-//W3C//DTD SVG 1.1//EN" "http://www.w3.org/Graphics/SVG/1.1/DTD/svg11.dtd">
<svg xmlns="http://www.w3.org/2000/svg" version="1.1" width="1728px" height="363px" style="shape-rendering:geometricPrecision; text-rendering:geometricPrecision; image-rendering:optimizeQuality; fill-rule:evenodd; clip-rule:evenodd" xmlns:xlink="http://www.w3.org/1999/xlink">
<g><path style="opacity:0.998" fill="#dae3f3" d="M -0.5,273.5 C -0.5,211.833 -0.5,150.167 -0.5,88.5C 9.9841,41.1833 39.3174,12.0166 87.5,1C 148.167,0.333333 208.833,0.333333 269.5,1C 307.027,8.49053 334.194,29.6572 351,64.5C 354.546,73.8784 357.212,83.545 359,93.5C 359.667,151.833 359.667,210.167 359,268.5C 352.396,304.673 333.562,331.839 302.5,350C 292.044,355.316 281.044,358.983 269.5,361C 208.833,361.667 148.167,361.667 87.5,361C 49.8522,353.359 22.6855,332.193 6,297.5C 3.5292,289.805 1.36253,281.805 -0.5,273.5 Z"/></g>
<g><path style="opacity:0.004" fill="#000000" d="M 47.5,14.5 C 48.8333,15.1667 48.8333,15.1667 47.5,14.5 Z"/></g>
<g><path style="opacity:0.004" fill="#00fffe" d="M 308.5,14.5 C 309.833,15.1667 309.833,15.1667 308.5,14.5 Z"/></g>
<g><path style="opacity:0.004" fill="#fefffe" d="M 20.5,37.5 C 21.8333,38.1667 21.8333,38.1667 20.5,37.5 Z"/></g>
<g><path style="opacity:0.004" fill="#fefffe" d="M 335.5,37.5 C 336.833,38.1667 336.833,38.1667 335.5,37.5 Z"/></g>
<g><path style="opacity:1" fill="#91b4e0" d="M 237.5,53.5 C 182.121,51.744 126.788,52.4107 71.5,55.5C 84.954,53.6158 98.6207,52.4492 112.5,52C 150.5,51.3333 188.5,51.3333 226.5,52C 230.356,52.1773 234.023,52.6773 237.5,53.5 Z"/></g>
<g><path style="opacity:1" fill="#77a4db" d="M 277.5,55.5 C 292.188,56.2444 306.521,58.5777 320.5,62.5C 320.831,88.3388 320.498,114.005 319.5,139.5C 319.667,114.498 319.5,89.4978 319,64.5C 318.5,65.6667 317.667,66.5 316.5,67C 309.188,68.7589 301.855,70.4255 294.5,72C 224.192,77.368 153.859,77.868 83.5,73.5C 83.3893,72.8826 83.056,72.3826 82.5,72C 69.4934,70.777 56.4934,69.4436 43.5,68C 35.7053,65.7712 35.7053,63.7712 43.5,62C 118.518,54.0962 193.685,52.5962 269,57.5C 272.833,57.3333 276.667,57.1667 280.5,57C 279.263,56.7679 278.263,56.2679 277.5,55.5 Z"/></g>
<g><path style="opacity:1" fill="#5c92d5" d="M 237.5,53.5 C 250.89,53.5192 264.224,54.1858 277.5,55.5C 278.263,56.2679 279.263,56.7679 280.5,57C 276.667,57.1667 272.833,57.3333 269,57.5C 193.685,52.5962 118.518,54.0962 43.5,62C 35.7053,63.7712 35.7053,65.7712 43.5,68C 56.4934,69.4436 69.4934,70.777 82.5,72C 83.056,72.3826 83.3893,72.8826 83.5,73.5C 68.3091,73.1172 53.3091,71.2839 38.5,68C 37,67.1667 35.8333,66 35,64.5C 34.1771,89.5723 34.3438,114.572 35.5,139.5C 34.1675,127.018 33.5008,114.185 33.5,101C 33.8333,88.1667 34.1667,75.3333 34.5,62.5C 36.4534,61.2393 38.4534,60.0726 40.5,59C 50.8652,57.9977 61.1985,56.8311 71.5,55.5C 126.788,52.4107 182.121,51.744 237.5,53.5 Z"/></g>
<g><path style="opacity:0.888" fill="#000000" d="M 698.5,88.5 C 698.833,89.5 699.5,90.1667 700.5,90.5C 700.833,91.5 701.5,92.1667 702.5,92.5C 733.109,129.509 737.942,169.843 717,213.5C 710.037,224.623 701.537,234.29 691.5,242.5C 659.66,265.297 625.16,269.964 588,256.5C 543.579,233.984 523.412,197.984 527.5,148.5C 539.067,94.2894 572.734,65.2894 628.5,61.5C 655.233,62.0896 678.566,71.0896 698.5,88.5 Z M 587.5,219.5 C 581.198,215.363 576.031,210.03 572,203.5C 552.566,164.635 558.566,130.969 590,102.5C 590.414,102.957 590.914,103.291 591.5,103.5C 598.575,97.7771 605.908,94.2771 613.5,93C 656.788,88.065 683.954,106.232 695,147.5C 698.773,173.239 692.606,195.572 676.5,214.5C 672.878,216.787 669.545,219.453 666.5,222.5C 660.794,225.5 654.127,228.666 646.5,232C 626.488,236.172 607.821,233.172 590.5,223C 588.937,222.241 587.937,221.074 587.5,219.5 Z"/></g>
<g><path style="opacity:0.878" fill="#000000" d="M 1284.5,108.5 C 1281.94,109.543 1279.78,111.21 1278,113.5C 1270.17,123.347 1264.84,134.347 1262,146.5C 1257.75,172.394 1263.92,195.394 1280.5,215.5C 1293.9,227.368 1309.57,233.368 1327.5,233.5C 1333.53,233.33 1339.53,232.83 1345.5,232C 1351,230.081 1356.33,227.914 1361.5,225.5C 1367.05,222.781 1372.22,219.448 1377,215.5C 1381.37,215.675 1385.53,217.008 1389.5,219.5C 1389.83,220.5 1390.5,221.167 1391.5,221.5C 1397.3,230.072 1396.3,237.906 1388.5,245C 1349.25,268.924 1309.58,269.591 1269.5,247C 1264.83,243.063 1260.17,239.23 1255.5,235.5C 1226.57,202.559 1219.07,165.892 1233,125.5C 1251.56,83.6791 1283.73,62.3458 1329.5,61.5C 1346.44,61.6384 1362.11,65.8051 1376.5,74C 1384.09,77.9154 1389.09,83.9154 1391.5,92C 1390.6,101.738 1385.26,106.905 1375.5,107.5C 1366.93,103.09 1358.26,98.9231 1349.5,95C 1333.36,91.4067 1317.36,91.9067 1301.5,96.5C 1297.64,98.9313 1293.64,101.098 1289.5,103C 1287.26,104.4 1285.6,106.233 1284.5,108.5 Z"/></g>
<g><path style="opacity:0.881" fill="#000000" d="M 1506.5,253.5 C 1484.97,264.73 1462.64,266.564 1439.5,259C 1432.11,255.44 1425.11,251.273 1418.5,246.5C 1415.26,242.417 1411.76,238.417 1408,234.5C 1406.73,232.286 1405.73,229.953 1405,227.5C 1404.42,222.479 1404.75,217.812 1406,213.5C 1406.33,213.833 1406.67,214.167 1407,214.5C 1408.31,212.188 1409.98,210.188 1412,208.5C 1417,207.167 1422,207.167 1427,208.5C 1431.92,214.263 1437.09,219.93 1442.5,225.5C 1453.73,233.406 1466.06,235.573 1479.5,232C 1483.37,229.77 1487.04,227.27 1490.5,224.5C 1496.06,215.865 1496.73,206.532 1492.5,196.5C 1489.18,190.995 1485.01,186.995 1480,184.5C 1476.35,181.832 1472.69,179.166 1469,176.5C 1466.91,177.791 1465.58,177.124 1465,174.5C 1464.59,174.957 1464.09,175.291 1463.5,175.5C 1457.4,171.792 1451.57,168.458 1446,165.5C 1430.73,159.915 1419.4,149.582 1412,134.5C 1406.56,117.63 1408.39,101.297 1417.5,85.5C 1424.63,76.1991 1433.63,69.3658 1444.5,65C 1451.78,63.7526 1458.78,62.586 1465.5,61.5C 1487.31,61.5073 1505.14,69.8406 1519,86.5C 1523.43,98.8307 1519.09,106.164 1506,108.5C 1502,107.4 1498.17,105.9 1494.5,104C 1481.69,91.6338 1467.02,89.1338 1450.5,96.5C 1439.9,108.448 1439.9,120.448 1450.5,132.5C 1464.91,141.713 1479.91,149.88 1495.5,157C 1503.48,162.996 1511.15,169.162 1518.5,175.5C 1528.93,190.006 1532.1,206.006 1528,223.5C 1526,228.979 1523.5,234.312 1520.5,239.5C 1516.12,244.548 1511.45,249.215 1506.5,253.5 Z"/></g>
<g><path style="opacity:0.885" fill="#000000" d="M 1575.5,66.5 C 1600.93,65.8314 1626.26,66.6647 1651.5,69C 1687.55,77.7195 1709.71,100.553 1718,137.5C 1723.66,168.178 1718.66,196.511 1703,222.5C 1690.21,239.611 1673.71,250.777 1653.5,256C 1638.37,257.106 1623.2,257.606 1608,257.5C 1595.17,257.333 1582.33,257.167 1569.5,257C 1563.5,255.178 1558.83,251.678 1555.5,246.5C 1553.48,241.623 1551.81,236.623 1550.5,231.5C 1550.35,186.01 1550.51,140.343 1551,94.5C 1551.81,84.8908 1555.98,77.0575 1563.5,71C 1567.65,69.5643 1571.65,68.0643 1575.5,66.5 Z M 1585.5,97.5 C 1604.18,97.1671 1622.85,97.5004 1641.5,98.5C 1658.13,102.121 1670.46,111.454 1678.5,126.5C 1687.81,150.459 1687.81,174.459 1678.5,198.5C 1672.16,211.355 1662.66,220.355 1650,225.5C 1649.28,224.941 1648.44,224.608 1647.5,224.5C 1643.61,225.878 1639.61,226.878 1635.5,227.5C 1618.85,228.499 1602.18,228.833 1585.5,228.5C 1585.5,184.833 1585.5,141.167 1585.5,97.5 Z"/></g>
<g><path style="opacity:1" fill="#216bc4" d="M 83.5,73.5 C 153.859,77.868 224.192,77.368 294.5,72C 301.855,70.4255 309.188,68.7589 316.5,67C 317.667,66.5 318.5,65.6667 319,64.5C 319.5,89.4978 319.667,114.498 319.5,139.5C 316.821,139.525 315.488,140.858 315.5,143.5C 288.66,147.096 261.66,148.763 234.5,148.5C 231.207,144.693 227.207,141.86 222.5,140C 219.243,138.957 215.91,138.457 212.5,138.5C 213.138,129.105 212.471,120.105 210.5,111.5C 207.5,111.5 204.5,111.5 201.5,111.5C 199.53,119.769 198.864,128.435 199.5,137.5C 186.5,137.5 173.5,137.5 160.5,137.5C 160.5,128.5 160.5,119.5 160.5,110.5C 156.233,110.203 152.066,110.536 148,111.5C 147.5,120.16 147.334,128.827 147.5,137.5C 137.9,137.128 130.9,141.128 126.5,149.5C 106.824,148.941 87.157,148.108 67.5,147C 59.0762,146.485 50.7429,145.318 42.5,143.5C 40.1459,143.511 38.1459,144.344 36.5,146C 42.1592,149.17 48.1592,151.17 54.5,152C 67.1866,153.114 79.8533,154.448 92.5,156C 102.494,156.5 112.494,156.666 122.5,156.5C 122.5,159.167 122.5,161.833 122.5,164.5C 112.833,164.5 103.167,164.5 93.5,164.5C 93.203,168.767 93.5363,172.934 94.5,177C 103.827,177.5 113.161,177.666 122.5,177.5C 122.5,189.833 122.5,202.167 122.5,214.5C 112.985,214.173 103.652,214.506 94.5,215.5C 94.5,218.833 94.5,222.167 94.5,225.5C 103.652,226.494 112.985,226.827 122.5,226.5C 122.5,227.5 122.5,228.5 122.5,229.5C 102.94,229.889 83.6067,228.889 64.5,226.5C 55.7393,224.666 46.7393,223.499 37.5,223C 38.8825,221.539 38.5492,220.706 36.5,220.5C 35.5416,220.047 34.7083,219.381 34,218.5C 33.5,193.502 33.3334,168.502 33.5,143.5C 34.5,143.5 35.5,143.5 36.5,143.5C 36.5674,142.041 36.2341,140.708 35.5,139.5C 34.3438,114.572 34.1771,89.5723 35,64.5C 35.8333,66 37,67.1667 38.5,68C 53.3091,71.2839 68.3091,73.1172 83.5,73.5 Z"/></g>
<g><path style="opacity:0.004" fill="#000000" d="M 1556.5,73.5 C 1557.83,74.1667 1557.83,74.1667 1556.5,73.5 Z"/></g>
<g><path style="opacity:0.004" fill="#000000" d="M 1261.5,82.5 C 1262.83,83.1667 1262.83,83.1667 1261.5,82.5 Z"/></g>
<g><path style="opacity:0.004" fill="#000000" d="M 698.5,87.5 C 699.833,88.1667 699.833,88.1667 698.5,87.5 Z"/></g>
<g><path style="opacity:0.004" fill="#000000" d="M 554.5,89.5 C 555.833,90.1667 555.833,90.1667 554.5,89.5 Z"/></g>
<g><path style="opacity:0.004" fill="#000000" d="M 700.5,89.5 C 701.833,90.1667 701.833,90.1667 700.5,89.5 Z"/></g>
<g><path style="opacity:0.004" fill="#000000" d="M 552.5,91.5 C 553.833,92.1667 553.833,92.1667 552.5,91.5 Z"/></g>
<g><path style="opacity:0.004" fill="#000000" d="M 702.5,91.5 C 703.833,92.1667 703.833,92.1667 702.5,91.5 Z"/></g>
<g><path style="opacity:0.004" fill="#000000" d="M 1701.5,98.5 C 1702.83,99.1667 1702.83,99.1667 1701.5,98.5 Z"/></g>
<g><path style="opacity:0.004" fill="#000000" d="M 1447.5,101.5 C 1448.83,102.167 1448.83,102.167 1447.5,101.5 Z"/></g>
<g><path style="opacity:0.004" fill="#000000" d="M 1490.5,103.5 C 1491.83,104.167 1491.83,104.167 1490.5,103.5 Z"/></g>
<g><path style="opacity:0.004" fill="#000000" d="M 1284.5,108.5 C 1285.83,109.167 1285.83,109.167 1284.5,108.5 Z"/></g>
<g><path style="opacity:0.004" fill="#000000" d="M 1282.5,110.5 C 1283.83,111.167 1283.83,111.167 1282.5,110.5 Z"/></g>1
<g><path style="opacity:1" fill="#fafcfd" d="M 160.5,137.5 C 173.99,138.496 187.656,138.829 201.5,138.5C 201.5,129.5 201.5,120.5 201.5,111.5C 204.5,111.5 207.5,111.5 210.5,111.5C 209.862,120.895 210.529,129.895 212.5,138.5C 215.91,138.457 219.243,138.957 222.5,140C 227.207,141.86 231.207,144.693 234.5,148.5C 235.917,152.002 236.584,155.669 236.5,159.5C 236.5,161.5 236.5,163.5 236.5,165.5C 245.167,165.5 253.833,165.5 262.5,165.5C 262.5,168.833 262.5,172.167 262.5,175.5C 253.827,175.334 245.16,175.5 236.5,176C 235.843,182.423 235.509,188.923 235.5,195.5C 235.509,202.077 235.843,208.577 236.5,215C 245.494,215.5 254.494,215.666 263.5,215.5C 263.5,218.833 263.5,222.167 263.5,225.5C 254.651,225.174 245.984,225.507 237.5,226.5C 236.566,229.656 235.899,232.989 235.5,236.5C 231.979,243.018 226.645,247.351 219.5,249.5C 216.552,249.223 213.719,249.556 211,250.5C 210.5,259.494 210.334,268.494 210.5,277.5C 207.5,277.5 204.5,277.5 201.5,277.5C 201.5,268.5 201.5,259.5 201.5,250.5C 187.656,250.171 173.99,250.504 160.5,251.5C 159.507,259.984 159.174,268.651 159.5,277.5C 156.167,277.5 152.833,277.5 149.5,277.5C 149.826,268.651 149.493,259.984 148.5,251.5C 143.499,250.874 138.499,249.708 133.5,248C 129.866,244.515 126.866,240.682 124.5,236.5C 123.756,232.881 123.423,229.215 123.5,225.5C 113.833,225.5 104.167,225.5 94.5,225.5C 94.5,222.167 94.5,218.833 94.5,215.5C 104.172,215.666 113.839,215.5 123.5,215C 124.157,208.577 124.491,202.077 124.5,195.5C 124.491,188.923 124.157,182.423 123.5,176C 113.839,175.5 104.172,175.334 94.5,175.5C 94.5,172.167 94.5,168.833 94.5,165.5C 104.015,165.827 113.348,165.494 122.5,164.5C 123.649,159.492 124.982,154.492 126.5,149.5C 129.297,147.205 131.964,144.705 134.5,142C 139.18,139.884 144.013,138.384 149,137.5C 149.5,128.84 149.666,120.173 149.5,111.5C 152.833,111.5 156.167,111.5 159.5,111.5C 159.174,120.349 159.507,129.016 160.5,137.5 Z"/></g>
<g><path style="opacity:1" fill="#a9c5e8" d="M 201.5,111.5 C 201.5,120.5 201.5,129.5 201.5,138.5C 187.656,138.829 173.99,138.496 160.5,137.5C 173.5,137.5 186.5,137.5 199.5,137.5C 198.864,128.435 199.53,119.769 201.5,111.5 Z"/></g>
<g><path style="opacity:1" fill="#c0d5ed" d="M 210.5,111.5 C 212.471,120.105 213.138,129.105 212.5,138.5C 210.529,129.895 209.862,120.895 210.5,111.5 Z"/></g>
<g><path style="opacity:0.879" fill="#000000" d="M 814.5,118.5 C 858.293,115.952 886.127,135.619 898,177.5C 902.458,220.416 884.292,248.916 843.5,263C 826.458,265.971 810.624,263.138 796,254.5C 792.328,251.495 788.995,248.161 786,244.5C 785.667,267.167 785.333,289.833 785,312.5C 781.52,318.485 776.353,321.819 769.5,322.5C 767.118,320.929 764.451,320.096 761.5,320C 756.12,316.628 753.287,311.795 753,305.5C 752.333,267.167 752.333,228.833 753,190.5C 754.232,185.279 754.899,179.946 755,174.5C 761.314,150.844 775.647,133.844 798,123.5C 798.333,123.833 798.667,124.167 799,124.5C 803.838,121.643 809.005,119.643 814.5,118.5 Z M 816.5,147.5 C 847.736,145.469 864.402,160.136 866.5,191.5C 862.494,226.714 843.494,240.214 809.5,232C 799.513,226.846 792.513,219.012 788.5,208.5C 784.006,193.153 785.506,178.486 793,164.5C 794.812,161.72 796.979,159.22 799.5,157C 805.028,153.245 810.694,150.078 816.5,147.5 Z"/></g>
<g><path style="opacity:0.869" fill="#000000" d="M 1022.5,225.5 C 1035.39,217.713 1044.06,221.047 1048.5,235.5C 1047.85,241.68 1044.85,246.514 1039.5,250C 1031.7,255.023 1023.37,258.69 1014.5,261C 992.774,266.147 971.941,263.98 952,254.5C 948.174,251.683 944.341,249.016 940.5,246.5C 937.713,243.23 934.713,240.23 931.5,237.5C 928.106,231.546 924.606,225.546 921,219.5C 908.737,175.838 922.237,143.671 961.5,123C 987.767,114.565 1011.77,118.898 1033.5,136C 1049.56,151.085 1056.73,169.585 1055,191.5C 1053.72,197.113 1050.55,201.28 1045.5,204C 1028.53,205.095 1011.53,205.595 994.5,205.5C 980.26,205.496 966.094,205.163 952,204.5C 952.029,209.921 953.696,214.921 957,219.5C 966.006,229.375 977.173,234.708 990.5,235.5C 996.636,233.841 1002.97,232.841 1009.5,232.5C 1014.35,230.911 1018.68,228.578 1022.5,225.5 Z M 977.5,147.5 C 997.679,144.981 1012.35,152.648 1021.5,170.5C 1021.29,171.086 1020.96,171.586 1020.5,172C 1022.36,173.418 1022.86,175.251 1022,177.5C 998.239,176.672 974.406,176.172 950.5,176C 951.966,169.291 955.133,163.458 960,158.5C 965.276,153.679 971.11,150.013 977.5,147.5 Z"/></g>
<g><path style="opacity:0.872" fill="#000000" d="M 1185.5,135.5 C 1193.87,144.259 1199.2,154.592 1201.5,166.5C 1202.67,194.827 1202.83,223.161 1202,251.5C 1194.6,262.656 1185.43,264.322 1174.5,256.5C 1172.49,253.475 1171.16,250.142 1170.5,246.5C 1169.83,220.833 1169.17,195.167 1168.5,169.5C 1166.2,158.707 1159.87,151.541 1149.5,148C 1139.58,146.333 1130.25,147.667 1121.5,152C 1115.44,157.613 1111.61,164.446 1110,172.5C 1109.67,197.833 1109.33,223.167 1109,248.5C 1106.33,256.287 1100.83,260.621 1092.5,261.5C 1085.65,260.909 1080.65,257.576 1077.5,251.5C 1076.33,224.506 1076.17,197.506 1077,170.5C 1078.06,164.897 1079.56,159.397 1081.5,154C 1084.63,147.403 1088.3,141.236 1092.5,135.5C 1099.14,130.738 1105.8,126.738 1112.5,123.5C 1139.19,113.931 1163.52,117.931 1185.5,135.5 Z"/></g>
<g><path style="opacity:0.004" fill="#000000" d="M 1098.5,128.5 C 1099.83,129.167 1099.83,129.167 1098.5,128.5 Z"/></g>
<g><path style="opacity:0.004" fill="#000000" d="M 1028.5,130.5 C 1029.83,131.167 1029.83,131.167 1028.5,130.5 Z"/></g>
<g><path style="opacity:0.004" fill="#000000" d="M 1092.5,135.5 C 1091.83,134.167 1091.83,134.167 1092.5,135.5 Z"/></g>
<g><path style="opacity:0.004" fill="#000000" d="M 1185.5,134.5 C 1186.83,135.167 1186.83,135.167 1185.5,134.5 Z"/></g>
<g><path style="opacity:1" fill="#93b5e2" d="M 160.5,137.5 C 159.507,129.016 159.174,120.349 159.5,111.5C 156.167,111.5 152.833,111.5 149.5,111.5C 149.666,120.173 149.5,128.84 149,137.5C 144.013,138.384 139.18,139.884 134.5,142C 131.964,144.705 129.297,147.205 126.5,149.5C 130.9,141.128 137.9,137.128 147.5,137.5C 147.334,128.827 147.5,120.16 148,111.5C 152.066,110.536 156.233,110.203 160.5,110.5C 160.5,119.5 160.5,128.5 160.5,137.5 Z"/></g>
<g><path style="opacity:0.004" fill="#000000" d="M 935.5,137.5 C 936.833,138.167 936.833,138.167 935.5,137.5 Z"/></g>
<g><path style="opacity:0.004" fill="#000000" d="M 879.5,139.5 C 880.833,140.167 880.833,140.167 879.5,139.5 Z"/></g>
<g><path style="opacity:0.004" fill="#000000" d="M 769.5,141.5 C 770.833,142.167 770.833,142.167 769.5,141.5 Z"/></g>
<g><path style="opacity:0.004" fill="#000000" d="M 1413.5,142.5 C 1414.83,143.167 1414.83,143.167 1413.5,142.5 Z"/></g>
<g><path style="opacity:0.004" fill="#000000" d="M 886.5,148.5 C 887.833,149.167 887.833,149.167 886.5,148.5 Z"/></g>
<g><path style="opacity:0.004" fill="#000000" d="M 926.5,148.5 C 927.833,149.167 927.833,149.167 926.5,148.5 Z"/></g>
<g><path style="opacity:1" fill="#709fd9" d="M 319.5,139.5 C 318.167,141.167 318.167,142.833 319.5,144.5C 317.952,144.821 317.285,145.821 317.5,147.5C 308.592,149.81 299.592,151.476 290.5,152.5C 272.845,153.741 255.179,154.741 237.5,155.5C 237.5,156.833 237.5,158.167 237.5,159.5C 237.167,159.5 236.833,159.5 236.5,159.5C 236.584,155.669 235.917,152.002 234.5,148.5C 261.66,148.763 288.66,147.096 315.5,143.5C 315.488,140.858 316.821,139.525 319.5,139.5 Z"/></g>
<g><path style="opacity:1" fill="#206ac3" d="M 319.5,144.5 C 319.667,169.502 319.5,194.502 319,219.5C 318.617,220.056 318.117,220.389 317.5,220.5C 303.499,224.49 289.166,226.823 274.5,227.5C 270.761,227.486 267.428,226.82 264.5,225.5C 264.815,221.629 264.482,217.962 263.5,214.5C 255.567,212.532 247.234,211.865 238.5,212.5C 238.5,200.833 238.5,189.167 238.5,177.5C 247.192,177.831 255.859,177.498 264.5,176.5C 265.809,172.302 265.809,168.136 264.5,164C 255.84,163.5 247.173,163.334 238.5,163.5C 238.5,161.167 238.5,158.833 238.5,156.5C 247.173,156.666 255.84,156.5 264.5,156C 273.33,155.093 281.996,153.927 290.5,152.5C 299.592,151.476 308.592,149.81 317.5,147.5C 317.285,145.821 317.952,144.821 319.5,144.5 Z"/></g>
<g><path style="opacity:1" fill="#6d9dd8" d="M 126.5,149.5 C 124.982,154.492 123.649,159.492 122.5,164.5C 122.5,161.833 122.5,159.167 122.5,156.5C 112.494,156.666 102.494,156.5 92.5,156C 79.8533,154.448 67.1866,153.114 54.5,152C 48.1592,151.17 42.1592,149.17 36.5,146C 38.1459,144.344 40.1459,143.511 42.5,143.5C 50.7429,145.318 59.0762,146.485 67.5,147C 87.157,148.108 106.824,148.941 126.5,149.5 Z"/></g>
<g><path style="opacity:0.004" fill="#000000" d="M 1119.5,155.5 C 1120.83,156.167 1120.83,156.167 1119.5,155.5 Z"/></g>
<g><path style="opacity:1" fill="#3779ca" d="M 137.5,156.5 C 166.338,156.169 195.005,156.502 223.5,157.5C 224.498,181.661 224.831,205.994 224.5,230.5C 194.833,230.5 165.167,230.5 135.5,230.5C 135.5,230.167 135.5,229.833 135.5,229.5C 135.333,205.498 135.5,181.498 136,157.5C 136.383,156.944 136.883,156.611 137.5,156.5 Z"/></g>
<g><path style="opacity:1" fill="#246bc4" d="M 223.5,157.5 C 223.5,181.5 223.5,205.5 223.5,229.5C 194.5,229.5 165.5,229.5 136.5,229.5C 136.5,205.833 136.5,182.167 136.5,158.5C 165.544,158.817 194.544,158.484 223.5,157.5 Z"/></g>
<g><path style="opacity:1" fill="#adc7e8" d="M 137.5,154.5 C 137.5,155.167 137.5,155.833 137.5,156.5C 136.883,156.611 136.383,156.944 136,157.5C 135.5,181.498 135.333,205.498 135.5,229.5C 134.337,205.337 134.17,181.003 135,156.5C 135.708,155.619 136.542,154.953 137.5,154.5 Z"/></g>
<g><path style="opacity:1" fill="#a7c4e7" d="M 211.5,225.5 C 190.673,226.497 169.673,226.831 148.5,226.5C 148.5,205.167 148.5,183.833 148.5,162.5C 169.833,162.5 191.167,162.5 212.5,162.5C 212.831,183.673 212.497,204.673 211.5,225.5 Z"/></g>
<g><path style="opacity:1" fill="#f9fbfd" d="M 211.5,225.5 C 190.833,225.5 170.167,225.5 149.5,225.5C 149.5,204.833 149.5,184.167 149.5,163.5C 170.167,163.5 190.833,163.5 211.5,163.5C 211.5,184.167 211.5,204.833 211.5,225.5 Z"/></g>
<g><path style="opacity:1" fill="#9bbbe4" d="M 122.5,164.5 C 113.348,165.494 104.015,165.827 94.5,165.5C 94.5,168.833 94.5,172.167 94.5,175.5C 104.172,175.334 113.839,175.5 123.5,176C 124.157,182.423 124.491,188.923 124.5,195.5C 124.491,202.077 124.157,208.577 123.5,215C 113.839,215.5 104.172,215.666 94.5,215.5C 103.652,214.506 112.985,214.173 122.5,214.5C 122.5,202.167 122.5,189.833 122.5,177.5C 113.161,177.666 103.827,177.5 94.5,177C 93.5363,172.934 93.203,168.767 93.5,164.5C 103.167,164.5 112.833,164.5 122.5,164.5 Z"/></g>
<g><path style="opacity:1" fill="#bcd2ec" d="M 160.5,174.5 C 173.99,173.504 187.656,173.171 201.5,173.5C 201.829,187.01 201.496,200.344 200.5,213.5C 200.829,200.323 200.495,187.323 199.5,174.5C 186.5,174.5 173.5,174.5 160.5,174.5 Z"/></g>
<g><path style="opacity:1" fill="#b4cdeb" d="M 236.5,159.5 C 236.833,159.5 237.167,159.5 237.5,159.5C 237.5,161.167 237.5,162.833 237.5,164.5C 246.167,164.5 254.833,164.5 263.5,164.5C 263.5,168.5 263.5,172.5 263.5,176.5C 254.833,176.5 246.167,176.5 237.5,176.5C 237.5,189.167 237.5,201.833 237.5,214.5C 246.167,214.5 254.833,214.5 263.5,214.5C 264.482,217.962 264.815,221.629 264.5,225.5C 264.167,225.5 263.833,225.5 263.5,225.5C 263.5,222.167 263.5,218.833 263.5,215.5C 254.494,215.666 245.494,215.5 236.5,215C 235.843,208.577 235.509,202.077 235.5,195.5C 235.509,188.923 235.843,182.423 236.5,176C 245.16,175.5 253.827,175.334 262.5,175.5C 262.5,172.167 262.5,168.833 262.5,165.5C 253.833,165.5 245.167,165.5 236.5,165.5C 236.5,163.5 236.5,161.5 236.5,159.5 Z"/></g>
<g><path style="opacity:1" fill="#216bc4" d="M 160.5,174.5 C 173.5,174.5 186.5,174.5 199.5,174.5C 199.5,187.5 199.5,200.5 199.5,213.5C 186.5,213.5 173.5,213.5 160.5,213.5C 160.5,200.5 160.5,187.5 160.5,174.5 Z"/></g>
<g><path style="opacity:1" fill="#4d87cf" d="M 290.5,152.5 C 281.996,153.927 273.33,155.093 264.5,156C 255.84,156.5 247.173,156.666 238.5,156.5C 238.5,158.833 238.5,161.167 238.5,163.5C 247.173,163.334 255.84,163.5 264.5,164C 265.809,168.136 265.809,172.302 264.5,176.5C 255.859,177.498 247.192,177.831 238.5,177.5C 238.5,189.167 238.5,200.833 238.5,212.5C 247.234,211.865 255.567,212.532 263.5,214.5C 254.833,214.5 246.167,214.5 237.5,214.5C 237.5,201.833 237.5,189.167 237.5,176.5C 246.167,176.5 254.833,176.5 263.5,176.5C 263.5,172.5 263.5,168.5 263.5,164.5C 254.833,164.5 246.167,164.5 237.5,164.5C 237.5,162.833 237.5,161.167 237.5,159.5C 237.5,158.167 237.5,156.833 237.5,155.5C 255.179,154.741 272.845,153.741 290.5,152.5 Z"/></g>
<g><path style="opacity:0.004" fill="#000000" d="M 1479.5,185.5 C 1480.83,186.167 1480.83,186.167 1479.5,185.5 Z"/></g>
<g><path style="opacity:1" fill="#75a3d9" d="M 199.5,174.5 C 200.495,187.323 200.829,200.323 200.5,213.5C 187.167,214.833 173.833,214.833 160.5,213.5C 173.5,213.5 186.5,213.5 199.5,213.5C 199.5,200.5 199.5,187.5 199.5,174.5 Z"/></g>
<g><path style="opacity:0.004" fill="#000000" d="M 1434.5,214.5 C 1435.83,215.167 1435.83,215.167 1434.5,214.5 Z"/></g>
<g><path style="opacity:0.004" fill="#000000" d="M 1436.5,216.5 C 1437.83,217.167 1437.83,217.167 1436.5,216.5 Z"/></g>
<g><path style="opacity:0.004" fill="#000000" d="M 958.5,218.5 C 959.833,219.167 959.833,219.167 958.5,218.5 Z"/></g>
<g><path style="opacity:0.004" fill="#000000" d="M 1389.5,218.5 C 1390.83,219.167 1390.83,219.167 1389.5,218.5 Z"/></g>
<g><path style="opacity:0.004" fill="#000000" d="M 1391.5,220.5 C 1392.83,221.167 1392.83,221.167 1391.5,220.5 Z"/></g>
<g><path style="opacity:0.004" fill="#000000" d="M 963.5,223.5 C 964.833,224.167 964.833,224.167 963.5,223.5 Z"/></g>
<g><path style="opacity:0.004" fill="#000000" d="M 1243.5,223.5 C 1244.83,224.167 1244.83,224.167 1243.5,223.5 Z"/></g>
<g><path style="opacity:0.004" fill="#000000" d="M 1022.5,225.5 C 1021.83,224.167 1021.83,224.167 1022.5,225.5 Z"/></g>
<g><path style="opacity:0.004" fill="#000000" d="M 1361.5,225.5 C 1360.83,224.167 1360.83,224.167 1361.5,225.5 Z"/></g>
<g><path style="opacity:1" fill="#4a85ce" d="M 36.5,220.5 C 38.5492,220.706 38.8825,221.539 37.5,223C 46.7393,223.499 55.7393,224.666 64.5,226.5C 55.449,226.256 46.449,225.589 37.5,224.5C 37.5,225.5 37.5,226.5 37.5,227.5C 36.2502,227.423 35.4169,226.756 35,225.5C 34.3333,250.167 34.3333,274.833 35,299.5C 35.9947,300.066 36.828,300.733 37.5,301.5C 36.1667,301.5 34.8333,301.5 33.5,301.5C 33.3334,275.831 33.5,250.165 34,224.5C 35.7058,223.692 36.5391,222.359 36.5,220.5 Z"/></g>
<g><path style="opacity:1" fill="#5a8ed2" d="M 317.5,220.5 C 317.461,222.359 318.294,223.692 320,224.5C 320.83,250.003 320.663,275.337 319.5,300.5C 319.667,275.498 319.5,250.498 319,225.5C 315.979,228.004 312.479,229.338 308.5,229.5C 311.142,228.898 313.475,227.564 315.5,225.5C 313.333,225.167 311.167,224.833 309,224.5C 285.351,228.546 261.518,230.212 237.5,229.5C 237.5,228.5 237.5,227.5 237.5,226.5C 245.984,225.507 254.651,225.174 263.5,225.5C 263.833,225.5 264.167,225.5 264.5,225.5C 267.428,226.82 270.761,227.486 274.5,227.5C 289.166,226.823 303.499,224.49 317.5,220.5 Z"/></g>
<g><path style="opacity:1" fill="#74a2da" d="M 308.5,229.5 C 284.449,233.698 260.115,236.031 235.5,236.5C 235.899,232.989 236.566,229.656 237.5,226.5C 237.5,227.5 237.5,228.5 237.5,229.5C 261.518,230.212 285.351,228.546 309,224.5C 311.167,224.833 313.333,225.167 315.5,225.5C 313.475,227.564 311.142,228.898 308.5,229.5 Z"/></g>
<g><path style="opacity:1" fill="#216bc4" d="M 37.5,227.5 C 42.3497,229.422 47.3497,230.922 52.5,232C 76.5051,233.562 100.505,235.062 124.5,236.5C 126.866,240.682 129.866,244.515 133.5,248C 138.499,249.708 143.499,250.874 148.5,251.5C 148.5,260.5 148.5,269.5 148.5,278.5C 152.5,278.5 156.5,278.5 160.5,278.5C 160.5,269.5 160.5,260.5 160.5,251.5C 173.5,251.5 186.5,251.5 199.5,251.5C 199.334,260.173 199.5,268.84 200,277.5C 204,278.833 208,278.833 212,277.5C 212.5,268.506 212.666,259.506 212.5,250.5C 215.059,250.802 217.393,250.468 219.5,249.5C 226.645,247.351 231.979,243.018 235.5,236.5C 260.115,236.031 284.449,233.698 308.5,229.5C 312.479,229.338 315.979,228.004 319,225.5C 319.5,250.498 319.667,275.498 319.5,300.5C 317.278,301.688 314.945,302.688 312.5,303.5C 301.049,305.269 289.715,306.936 278.5,308.5C 203.731,313.286 129.064,312.286 54.5,305.5C 48.3297,305.702 42.663,304.368 37.5,301.5C 36.828,300.733 35.9947,300.066 35,299.5C 34.3333,274.833 34.3333,250.167 35,225.5C 35.4169,226.756 36.2502,227.423 37.5,227.5 Z"/></g>
<g><path style="opacity:1" fill="#76a4db" d="M 64.5,226.5 C 83.6067,228.889 102.94,229.889 122.5,229.5C 122.5,228.5 122.5,227.5 122.5,226.5C 112.985,226.827 103.652,226.494 94.5,225.5C 104.167,225.5 113.833,225.5 123.5,225.5C 123.423,229.215 123.756,232.881 124.5,236.5C 100.505,235.062 76.5051,233.562 52.5,232C 47.3497,230.922 42.3497,229.422 37.5,227.5C 37.5,226.5 37.5,225.5 37.5,224.5C 46.449,225.589 55.449,226.256 64.5,226.5 Z"/></g>
<g><path style="opacity:1" fill="#78a5db" d="M 225.5,231.5 C 223.861,233.806 221.861,235.806 219.5,237.5C 193.67,236.337 167.67,236.17 141.5,237C 142.056,237.383 142.389,237.883 142.5,238.5C 138.792,237.062 136.458,234.396 135.5,230.5C 165.167,230.5 194.833,230.5 224.5,230.5C 224.831,205.994 224.498,181.661 223.5,157.5C 195.005,156.502 166.338,156.169 137.5,156.5C 137.5,155.833 137.5,155.167 137.5,154.5C 138.909,152.583 140.576,150.75 142.5,149C 166.84,148.167 191.174,148.334 215.5,149.5C 219.344,150.834 222.511,153.168 225,156.5C 225.5,181.498 225.667,206.498 225.5,231.5 Z"/></g>
<g><path style="opacity:0.004" fill="#000000" d="M 928.5,235.5 C 929.833,236.167 929.833,236.167 928.5,235.5 Z"/></g>
<g><path style="opacity:0.004" fill="#000000" d="M 1255.5,235.5 C 1254.83,236.167 1254.83,236.167 1255.5,235.5 Z"/></g>
<g><path style="opacity:1" fill="#5089d0" d="M 219.5,237.5 C 218.737,238.268 217.737,238.768 216.5,239C 191.836,239.5 167.169,239.667 142.5,239.5C 142.5,239.167 142.5,238.833 142.5,238.5C 142.389,237.883 142.056,237.383 141.5,237C 167.67,236.17 193.67,236.337 219.5,237.5 Z"/></g>
<g><path style="opacity:0.004" fill="#000000" d="M 883.5,237.5 C 884.833,238.167 884.833,238.167 883.5,237.5 Z"/></g>
<g><path style="opacity:0.004" fill="#000000" d="M 931.5,237.5 C 930.833,238.167 930.833,238.167 931.5,237.5 Z"/></g>
<g><path style="opacity:1" fill="#bad1ec" d="M 225.5,231.5 C 224.515,235.33 222.181,238.163 218.5,240C 192.997,240.83 167.663,240.663 142.5,239.5C 167.169,239.667 191.836,239.5 216.5,239C 217.737,238.768 218.737,238.268 219.5,237.5C 221.861,235.806 223.861,233.806 225.5,231.5 Z"/></g>
<g><path style="opacity:0.004" fill="#000000" d="M 561.5,241.5 C 562.833,242.167 562.833,242.167 561.5,241.5 Z"/></g>
<g><path style="opacity:0.004" fill="#000000" d="M 691.5,242.5 C 692.833,243.167 692.833,243.167 691.5,242.5 Z"/></g>
<g><path style="opacity:0.004" fill="#000000" d="M 1413.5,242.5 C 1414.83,243.167 1414.83,243.167 1413.5,242.5 Z"/></g>
<g><path style="opacity:0.004" fill="#000000" d="M 1415.5,244.5 C 1416.83,245.167 1416.83,245.167 1415.5,244.5 Z"/></g>
<g><path style="opacity:0.004" fill="#000000" d="M 940.5,246.5 C 939.833,247.167 939.833,247.167 940.5,246.5 Z"/></g>
<g><path style="opacity:0.004" fill="#000000" d="M 1044.5,246.5 C 1045.83,247.167 1045.83,247.167 1044.5,246.5 Z"/></g>
<g><path style="opacity:0.004" fill="#000000" d="M 1418.5,246.5 C 1417.83,247.167 1417.83,247.167 1418.5,246.5 Z"/></g>
<g><path style="opacity:0.004" fill="#000000" d="M 1042.5,248.5 C 1043.83,249.167 1043.83,249.167 1042.5,248.5 Z"/></g>
<g><path style="opacity:1" fill="#b0cae9" d="M 219.5,249.5 C 217.393,250.468 215.059,250.802 212.5,250.5C 212.666,259.506 212.5,268.506 212,277.5C 208,278.833 204,278.833 200,277.5C 199.5,268.84 199.334,260.173 199.5,251.5C 186.5,251.5 173.5,251.5 160.5,251.5C 173.99,250.504 187.656,250.171 201.5,250.5C 201.5,259.5 201.5,268.5 201.5,277.5C 204.5,277.5 207.5,277.5 210.5,277.5C 210.334,268.494 210.5,259.494 211,250.5C 213.719,249.556 216.552,249.223 219.5,249.5 Z"/></g>
<g><path style="opacity:0.004" fill="#000000" d="M 1506.5,253.5 C 1507.83,254.167 1507.83,254.167 1506.5,253.5 Z"/></g>
<g><path style="opacity:1" fill="#afc9ea" d="M 148.5,251.5 C 149.493,259.984 149.826,268.651 149.5,277.5C 152.833,277.5 156.167,277.5 159.5,277.5C 159.174,268.651 159.507,259.984 160.5,251.5C 160.5,260.5 160.5,269.5 160.5,278.5C 156.5,278.5 152.5,278.5 148.5,278.5C 148.5,269.5 148.5,260.5 148.5,251.5 Z"/></g>
<g><path style="opacity:0.004" fill="#000000" d="M 1198.5,257.5 C 1199.83,258.167 1199.83,258.167 1198.5,257.5 Z"/></g>
<g><path style="opacity:1" fill="#7da5db" d="M 312.5,303.5 C 301.575,306.835 290.242,308.502 278.5,308.5C 289.715,306.936 301.049,305.269 312.5,303.5 Z"/></g>
<g><path style="opacity:1" fill="#80a8dc" d="M 54.5,305.5 C 129.064,312.286 203.731,313.286 278.5,308.5C 265.028,310.135 251.361,311.302 237.5,312C 188.136,313.111 138.803,312.444 89.5,310C 77.6004,309.182 65.9337,307.682 54.5,305.5 Z"/></g>
<g><path style="opacity:0.004" fill="#fefffe" d="M 20.5,323.5 C 21.8333,324.167 21.8333,324.167 20.5,323.5 Z"/></g>
<g><path style="opacity:0.004" fill="#fefffe" d="M 335.5,323.5 C 336.833,324.167 336.833,324.167 335.5,323.5 Z"/></g>
<g><path style="opacity:0.004" fill="#000000" d="M 47.5,346.5 C 48.8333,347.167 48.8333,347.167 47.5,346.5 Z"/></g>
<g><path style="opacity:0.004" fill="#00fffe" d="M 308.5,346.5 C 309.833,347.167 309.833,347.167 308.5,346.5 Z"/></g>
</svg>
